<?xml version="1.0" encoding="UTF-8"?>
<svg version="1.1" xmlns="http://www.w3.org/2000/svg" width="32" height="32">
<path d="M0 0 C10.56 0 21.12 0 32 0 C32 10.56 32 21.12 32 32 C21.44 32 10.88 32 0 32 C0 21.44 0 10.88 0 0 Z " fill="#39B4FC" transform="translate(0,0)"/>
<path d="M0 0 C1.010625 0.0825 2.02125 0.165 3.0625 0.25 C5.59025351 4.04163027 5.28693035 7.05874031 5.1875 11.4375 C5.17847656 12.18708984 5.16945313 12.93667969 5.16015625 13.70898438 C5.13662578 15.55612654 5.10075561 17.40310412 5.0625 19.25 C4.4025 18.59 3.7425 17.93 3.0625 17.25 C3.0625 15.93 3.0625 14.61 3.0625 13.25 C2.0725 13.25 1.0825 13.25 0.0625 13.25 C0.3925 15.56 0.7225 17.87 1.0625 20.25 C0.4025 20.25 -0.2575 20.25 -0.9375 20.25 C-1.44393553 18.02228658 -1.9423962 15.79275924 -2.4375 13.5625 C-2.7159375 12.32113281 -2.994375 11.07976563 -3.28125 9.80078125 C-3.83257055 6.81774329 -4.16116966 4.26394873 -3.9375 1.25 C-2.9375 0.25 -2.9375 0.25 0 0 Z " fill="#C3AAA3" transform="translate(14.9375,11.75)"/>
<path d="M0 0 C1.67299959 0.65061095 3.33859237 1.32033324 5 2 C5.7425 2.268125 6.485 2.53625 7.25 2.8125 C9 4 9 4 10 9 C5.38 9 0.76 9 -4 9 C-4.33 6.69 -4.66 4.38 -5 2 C-4.01 2 -3.02 2 -2 2 C-1.67 3.32 -1.34 4.64 -1 6 C-0.67 4.02 -0.34 2.04 0 0 Z " fill="#0D3F78" transform="translate(20,23)"/>
<path d="M0 0 C0.33 2.31 0.66 4.62 1 7 C-2.63 7 -6.26 7 -10 7 C-9.8125 4.125 -9.8125 4.125 -9 1 C-5.74792387 -1.02156084 -3.58227928 -1.32677011 0 0 Z " fill="#085EA3" transform="translate(13,25)"/>
<path d="M0 0 C3.5625 0.1875 3.5625 0.1875 5.5625 2.1875 C5.6875 4.8125 5.6875 4.8125 5.5625 7.1875 C4.9025 7.1875 4.2425 7.1875 3.5625 7.1875 C3.2325 6.5275 2.9025 5.8675 2.5625 5.1875 C-1.57843698 4.97779441 -1.57843698 4.97779441 -5.4375 6.1875 C-4.36970339 0.23834746 -4.36970339 0.23834746 0 0 Z " fill="#3F4047" transform="translate(15.4375,7.8125)"/>
<path d="M0 0 C1.32 0.33 2.64 0.66 4 1 C3.79375 1.94875 3.5875 2.8975 3.375 3.875 C3.25125 4.90625 3.1275 5.9375 3 7 C3.66 7.66 4.32 8.32 5 9 C5.125 12.625 5.125 12.625 5 16 C4.34 16 3.68 16 3 16 C2.49750857 13.70887834 1.99807883 11.41708499 1.5 9.125 C1.2215625 7.84882813 0.943125 6.57265625 0.65625 5.2578125 C0 2 0 2 0 0 Z " fill="#BDC3D2" transform="translate(11,16)"/>
<path d="M0 0 C1.32 0.66 2.64 1.32 4 2 C3.01 2 2.02 2 1 2 C1 4.31 1 6.62 1 9 C-0.65 9 -2.3 9 -4 9 C-4.33 6.69 -4.66 4.38 -5 2 C-4.01 2 -3.02 2 -2 2 C-1.67 3.32 -1.34 4.64 -1 6 C-0.67 4.02 -0.34 2.04 0 0 Z " fill="#27588A" transform="translate(20,23)"/>
<path d="M0 0 C1.98 0 3.96 0 6 0 C6.33 0.66 6.66 1.32 7 2 C6.67 2.66 6.34 3.32 6 4 C3.69 4 1.38 4 -1 4 C-0.67 2.68 -0.34 1.36 0 0 Z " fill="#A1837D" transform="translate(12,12)"/>
<path d="M0 0 C1.134375 0.020625 2.26875 0.04125 3.4375 0.0625 C3.4375 0.3925 3.4375 0.7225 3.4375 1.0625 C1.7875 1.0625 0.1375 1.0625 -1.5625 1.0625 C-1.5625 1.7225 -1.5625 2.3825 -1.5625 3.0625 C-0.5725 3.3925 0.4175 3.7225 1.4375 4.0625 C-0.8725 4.7225 -3.1825 5.3825 -5.5625 6.0625 C-4.48849278 0.07874549 -4.48849278 0.07874549 0 0 Z " fill="#454E5D" transform="translate(15.5625,7.9375)"/>
<path d="M0 0 C2.0625 0.4375 2.0625 0.4375 4 1 C4.33 3.31 4.66 5.62 5 8 C3.68 7.67 2.36 7.34 1 7 C1 5.33333333 1 3.66666667 1 2 C0.34 1.67 -0.32 1.34 -1 1 C-0.67 0.67 -0.34 0.34 0 0 Z " fill="#2567A3" transform="translate(9,24)"/>
<path d="M0 0 C0.625 1.875 0.625 1.875 1 4 C-1 6 -1 6 -3.625 6.125 C-4.40875 6.08375 -5.1925 6.0425 -6 6 C-6 5.01 -6 4.02 -6 3 C-3.525 3.495 -3.525 3.495 -1 4 C-0.67 2.68 -0.34 1.36 0 0 Z " fill="#034588" transform="translate(11,26)"/>
<path d="M0 0 C0.33 0.66 0.66 1.32 1 2 C2.65 2 4.3 2 6 2 C6.33 2.66 6.66 3.32 7 4 C4.36 4 1.72 4 -1 4 C-0.67 2.68 -0.34 1.36 0 0 Z " fill="#022D65" transform="translate(22,28)"/>
<path d="M0 0 C1.32 0 2.64 0 4 0 C4 1.65 4 3.3 4 5 C2.68 4.67 1.36 4.34 0 4 C0 2.68 0 1.36 0 0 Z " fill="#043D82" transform="translate(21,25)"/>
</svg>
